:FULLY-SPECIFIED
:FORCE-ALL-JOINTS-BE-3DOF
:DEGREES
577
root 6.14536 16.3914 -3.66021 -87.2806 87.4496 -92.7003
lfemur -18.2616 6.73049 -19.5389
ltibia 45.2881 -0 0
lfoot -30.941 10.2112 -0.121872
ltoes 1.84869 -0 0
rfemur -46.4835 -9.06037 15.0384
rtibia 56.2224 -0 0
rfoot 7.73148 9.08936 0.000841275
rtoes -21.5885 0 0
lowerback 4.71579 -1.12392 -5.17453
upperback 1.81279 -1.67089 2.03001
thorax -0.547095 -0.853373 5.08639
lowerneck -5.87759 -12.7228 -3.61715
upperneck 12.3441 -17.5145 6.03258
head 5.55748 -8.32731 1.1862
lclavicle -2.01788e-15 2.08448e-15 5.50258e-32
lhumerus -26.995 -28.6417 88.5873
lradius 53.6897 -0 0
lwrist 22.3087 0 0
lhand -15.9941 -2.0868 0.0808135
lfingers 7.12502 -0 0
lthumb 10.1894 27.4189 0.00243076
rclavicle -2.01788e-15 2.08448e-15 5.50258e-32
rhumerus 18.6939 20.443 -73.3401
rradius 129.321 -0 0
rwrist -37.1029 0 0
rhand -22.9003 -18.8467 0.179493
rfingers 7.12502 -0 0
rthumb 3.525 -48.557 0.23422
578
root 6.15318 16.3906 -3.63734 -86.7361 87.4332 -92.1516
lfemur -18.1755 7.02523 -19.4898
ltibia 45.2597 -0 0
lfoot -31.0055 10.4163 -0.112963
ltoes 1.7009 -0 0
rfemur -46.3472 -9.25275 15.1027
rtibia 56.0697 -0 0
rfoot 7.72587 9.07352 0.000796605
rtoes -21.6535 0 0
lowerback 4.69169 -1.13449 -5.21943
upperback 1.82654 -1.68569 2.03399
thorax -0.516944 -0.862095 5.1163
lowerneck -5.83998 -12.7491 -3.63191
upperneck 12.3722 -17.5575 6.07912
head 5.56694 -8.34528 1.19952
lclavicle -2.08991e-15 2.20517e-15 5.25364e-32
lhumerus -26.7774 -28.5311 88.2903
lradius 53.6591 -0 0
lwrist 22.5109 0 0
lhand -16.2741 -2.11806 0.0748983
lfingers 7.12502 -0 0
lthumb 9.92054 27.4179 0.00226018
rclavicle -2.08991e-15 2.20517e-15 5.25364e-32
rhumerus 19.1971 20.1097 -73.3057
rradius 129.673 -0 0
rwrist -37.7471 0 0
rhand -23.2081 -18.9115 0.166283
rfingers 7.12502 -0 0
rthumb 3.22889 -48.6445 0.216975
579
root 6.16079 16.3899 -3.61505 -86.2041 87.4169 -91.6154
lfemur -18.0914 7.31283 -19.4415
ltibia 45.2321 -0 0
lfoot -31.0684 10.6163 -0.104057
ltoes 1.55682 -0 0
rfemur -46.2144 -9.4403 15.165
rtibia 55.9204 -0 0
rfoot 7.72015 9.05826 0.000750031
rtoes -21.7173 0 0
lowerback 4.66817 -1.14481 -5.26325
upperback 1.83993 -1.70015 2.03783
thorax -0.487553 -0.87062 5.14545
lowerneck -5.80332 -12.7748 -3.64631
upperneck 12.3995 -17.5995 6.1245
head 5.57618 -8.36279 1.21251
lclavicle -2.16483e-15 2.32161e-15 4.98665e-32
lhumerus -26.5659 -28.4225 88.0015
lradius 53.6292 -0 0
lwrist 22.7079 0 0
lhand -16.5469 -2.1485 0.0689857
lfingers 7.12502 -0 0
lthumb 9.65859 27.4169 0.00208895
rclavicle -2.16483e-15 2.32161e-15 4.98665e-32
rhumerus 19.6864 19.7846 -73.2752
rradius 130.016 -0 0
rwrist -38.3753 0 0
rhand -23.5081 -18.9746 0.153084
rfingers 7.12502 -0 0
rthumb 2.94027 -48.7297 0.199745
580
root 6.16818 16.3892 -3.59336 -85.6843 87.4009 -91.0916
lfemur -18.0092 7.59307 -19.394
ltibia 45.2052 -0 0
lfoot -31.1296 10.8109 -0.0951791
ltoes 1.41652 -0 0
rfemur -46.0851 -9.62285 15.2253
rtibia 55.7748 -0 0
rfoot 7.71433 9.04359 0.000701598
rtoes -21.7798 0 0
lowerback 4.64525 -1.15489 -5.30596
upperback 1.85294 -1.71423 2.04155
thorax -0.458945 -0.878941 5.17382
lowerneck -5.76764 -12.7997 -3.66034
upperneck 12.4262 -17.6403 6.16868
head 5.5852 -8.37982 1.22515
lclavicle -2.24269e-15 2.43365e-15 4.70157e-32
lhumerus -26.3609 -28.316 87.7213
lradius 53.6001 -0 0
lwrist 22.8997 0 0
lhand -16.8124 -2.17811 0.0630924
lfingers 7.12502 -0 0
lthumb 9.40375 27.4158 0.00191748
rclavicle -2.24269e-15 2.43365e-15 4.70157e-32
rhumerus 20.1614 19.4679 -73.2484
rradius 130.349 -0 0
rwrist -38.9868 0 0
rhand -23.8001 -19.0359 0.139934
rfingers 7.12502 -0 0
rthumb 2.65939 -48.8126 0.18258
581
root 6.17535 16.3885 -3.57228 -85.1768 87.3851 -90.5802
lfemur -17.9292 7.86572 -19.3475
ltibia 45.1791 -0 0
lfoot -31.1889 11 -0.0863533
ltoes 1.2801 -0 0
rfemur -45.9596 -9.80022 15.2837
rtibia 55.6328 -0 0
rfoot 7.7084 9.02953 0.000651354
rtoes -21.8408 0 0
lowerback 4.62294 -1.16471 -5.34751
upperback 1.86556 -1.72793 2.04512
thorax -0.431145 -0.887049 5.20138
lowerneck -5.73298 -12.8239 -3.67399
upperneck 12.4522 -17.6799 6.21162
head 5.59397 -8.39635 1.23744
lclavicle -2.32357e-15 2.54114e-15 4.3985e-32
lhumerus -26.1623 -28.2119 87.4497
lradius 53.572 -0 0
lwrist 23.0861 0 0
lhand -17.0702 -2.20685 0.0572351
lfingers 7.12502 -0 0
lthumb 9.15624 27.4148 0.00174622
rclavicle -2.32357e-15 2.54114e-15 4.3985e-32
rhumerus 20.6218 19.16 -73.2249
rradius 130.673 -0 0
rwrist -39.5811 0 0
rhand -24.0838 -19.0956 0.12687
rfingers 7.12502 -0 0
rthumb 2.3865 -48.8931 0.16553
582
root 6.18229 16.3878 -3.55183 -84.6814 87.3695 -90.0811
lfemur -17.8513 8.13057 -19.302
ltibia 45.1538 -0 0
lfoot -31.2465 11.1834 -0.0776053
ltoes 1.1477 -0 0
rfemur -45.8378 -9.97224 15.3401
rtibia 55.4947 -0 0
rfoot 7.70235 9.01611 0.000599356
rtoes -21.9004 0 0
lowerback 4.60127 -1.17426 -5.38788
upperback 1.87778 -1.74125 2.04854
thorax -0.404177 -0.894936 5.22811
lowerneck -5.69937 -12.8474 -3.68724
upperneck 12.4774 -17.7184 6.25329
head 5.60251 -8.41238 1.24936
lclavicle -2.40751e-15 2.64392e-15 4.07757e-32
lhumerus -25.9702 -28.1102 87.1871
lradius 53.5447 -0 0
lwrist 23.2668 0 0
lhand -17.3201 -2.23471 0.0514306
lfingers 7.12502 -0 0
lthumb 8.91627 27.4139 0.00157558
rclavicle -2.40751e-15 2.64392e-15 4.07757e-32
rhumerus 21.0674 18.8611 -73.2047
rradius 130.988 -0 0
rwrist -40.1578 0 0
rhand -24.3589 -19.1534 0.113933
rfingers 7.12502 -0 0
rthumb 2.12183 -48.9712 0.148644
583
root 6.189 16.3871 -3.53204 -84.198 87.3543 -89.594
lfemur -17.7758 8.38738 -19.2576
ltibia 45.1294 -0 0
lfoot -31.3022 11.3609 -0.0689606
ltoes 1.01943 -0 0
rfemur -45.7199 -10.1387 15.3945
rtibia 55.3605 -0 0
rfoot 7.69619 9.00332 0.000545666
rtoes -21.9586 0 0
lowerback 4.58025 -1.18353 -5.42702
upperback 1.88959 -1.75415 2.05183
thorax -0.378065 -0.902593 5.25398
lowerneck -5.66683 -12.8701 -3.70008
upperneck 12.5018 -17.7556 6.29365
head 5.61079 -8.42789 1.26091
lclavicle -2.49458e-15 2.74184e-15 3.73906e-32
lhumerus -25.7849 -28.0113 86.9334
lradius 53.5183 -0 0
lwrist 23.4418 0 0
lhand -17.562 -2.26167 0.0456957
lfingers 7.12502 -0 0
lthumb 8.68407 27.4129 0.001406
rclavicle -2.49458e-15 2.74184e-15 3.73906e-32
rhumerus 21.4979 18.5717 -73.1874
rradius 131.292 -0 0
rwrist -40.7163 0 0
rhand -24.6253 -19.2094 0.10116
rfingers 7.12502 -0 0
rthumb 1.86562 -49.0467 0.131974
584
root 6.19547 16.3865 -3.51292 -83.7264 87.3393 -89.119
lfemur -17.7026 8.63593 -19.2144
ltibia 45.1059 -0 0
lfoot -31.3559 11.5324 -0.0604447
ltoes 0.895394 -0 0
rfemur -45.606 -10.2995 15.4468
rtibia 55.2304 -0 0
rfoot 7.68992 8.9912 0.000490352
rtoes -22.0152 0 0
lowerback 4.55991 -1.19252 -5.46491
upperback 1.90098 -1.76664 2.05496
thorax -0.352833 -0.910013 5.27898
lowerneck -5.6354 -12.892 -3.71249
upperneck 12.5255 -17.7916 6.33267
head 5.61883 -8.44286 1.27207
lclavicle -2.58484e-15 2.83475e-15 3.38331e-32
lhumerus -25.6063 -27.9152 86.689
lradius 53.4928 -0 0
lwrist 23.6109 0 0
lhand -17.7955 -2.28769 0.0400475
lfingers 7.12502 -0 0
lthumb 8.45986 27.412 0.00123791
rclavicle -2.58484e-15 2.83475e-15 3.38331e-32
rhumerus 21.913 18.292 -73.1728
rradius 131.586 -0 0
rwrist -41.2561 0 0
rhand -24.8826 -19.2634 0.0885899
rfingers 7.12502 -0 0
rthumb 1.61813 -49.1196 0.115571
